<mxfile host="app.diagrams.net" modified="2022-08-16T14:02:39.435Z" agent="5.0 (X11; Linux x86_64) AppleWebKit/537.36 (KHTML, like Gecko) Chrome/104.0.0.0 Safari/537.36" etag="tdngTRBk00gtaRDfADtO" version="20.0.4" type="github" pages="8">
  <diagram name="Desktop_Homepage" id="03018318-947c-dd8e-b7a3-06fadd420f32">
    <mxGraphModel dx="1422" dy="1682" grid="1" gridSize="10" guides="1" tooltips="1" connect="1" arrows="1" fold="1" page="1" pageScale="1" pageWidth="1100" pageHeight="850" background="none" math="0" shadow="0">
      <root>
        <mxCell id="0" />
        <mxCell id="1" parent="0" />
        <mxCell id="HQag_VCg8Njc-sEDRuP--3" value="" style="shape=image;html=1;verticalAlign=top;verticalLabelPosition=bottom;labelBackgroundColor=#ffffff;imageAspect=0;aspect=fixed;image=https://cdn1.iconfinder.com/data/icons/bootstrap-vol-3/16/hexagon-128.png;rotation=90;" vertex="1" parent="1">
          <mxGeometry x="80" y="60" width="128" height="128" as="geometry" />
        </mxCell>
        <mxCell id="HQag_VCg8Njc-sEDRuP--4" value="" style="shape=image;html=1;verticalAlign=top;verticalLabelPosition=bottom;labelBackgroundColor=#ffffff;imageAspect=0;aspect=fixed;image=https://cdn1.iconfinder.com/data/icons/bootstrap-vol-3/16/hexagon-128.png;rotation=90;labelBorderColor=#FF0000;" vertex="1" parent="1">
          <mxGeometry x="190" y="180" width="128" height="128" as="geometry" />
        </mxCell>
        <mxCell id="HQag_VCg8Njc-sEDRuP--5" value="" style="shape=image;html=1;verticalAlign=top;verticalLabelPosition=bottom;labelBackgroundColor=#ffffff;imageAspect=0;aspect=fixed;image=https://cdn1.iconfinder.com/data/icons/bootstrap-vol-3/16/hexagon-128.png;rotation=90;" vertex="1" parent="1">
          <mxGeometry x="510" y="60" width="128" height="128" as="geometry" />
        </mxCell>
        <mxCell id="HQag_VCg8Njc-sEDRuP--6" value="" style="shape=image;html=1;verticalAlign=top;verticalLabelPosition=bottom;labelBackgroundColor=#ffffff;imageAspect=0;aspect=fixed;image=https://cdn1.iconfinder.com/data/icons/bootstrap-vol-3/16/hexagon-128.png;rotation=90;" vertex="1" parent="1">
          <mxGeometry x="930" y="60" width="128" height="128" as="geometry" />
        </mxCell>
        <mxCell id="HQag_VCg8Njc-sEDRuP--7" value="" style="shape=image;html=1;verticalAlign=top;verticalLabelPosition=bottom;labelBackgroundColor=#ffffff;imageAspect=0;aspect=fixed;image=https://cdn1.iconfinder.com/data/icons/bootstrap-vol-3/16/hexagon-128.png;rotation=90;" vertex="1" parent="1">
          <mxGeometry x="730" y="60" width="128" height="128" as="geometry" />
        </mxCell>
        <mxCell id="HQag_VCg8Njc-sEDRuP--8" value="&lt;span style=&quot;color: rgba(0, 0, 0, 0); font-family: monospace; font-size: 0px; text-align: start; background-color: rgb(248, 249, 250);&quot;&gt;%3CmxGraphModel%3E%3Croot%3E%3CmxCell%20id%3D%220%22%2F%3E%3CmxCell%20id%3D%221%22%20parent%3D%220%22%2F%3E%3CmxCell%20id%3D%222%22%20value%3D%22Foto%22%20style%3D%22text%3Bhtml%3D1%3BstrokeColor%3Dnone%3BfillColor%3Dnone%3Balign%3Dcenter%3BverticalAlign%3Dmiddle%3BwhiteSpace%3Dwrap%3Brounded%3D0%3BfontSize%3D24%3B%22%20vertex%3D%221%22%20parent%3D%221%22%3E%3CmxGeometry%20x%3D%22110%22%20y%3D%22109%22%20width%3D%2260%22%20height%3D%2230%22%20as%3D%22geometry%22%2F%3E%3C%2FmxCell%3E%3C%2Froot%3E%3C%2FmxGraphModel%3E&lt;/span&gt;" style="shape=image;html=1;verticalAlign=top;verticalLabelPosition=bottom;labelBackgroundColor=#ffffff;imageAspect=0;aspect=fixed;image=https://cdn1.iconfinder.com/data/icons/bootstrap-vol-3/16/hexagon-128.png;rotation=90;" vertex="1" parent="1">
          <mxGeometry x="300" y="60" width="128" height="128" as="geometry" />
        </mxCell>
        <mxCell id="HQag_VCg8Njc-sEDRuP--9" value="" style="shape=image;html=1;verticalAlign=top;verticalLabelPosition=bottom;labelBackgroundColor=#ffffff;imageAspect=0;aspect=fixed;image=https://cdn1.iconfinder.com/data/icons/bootstrap-vol-3/16/hexagon-128.png;rotation=90;" vertex="1" parent="1">
          <mxGeometry x="410" y="180" width="128" height="128" as="geometry" />
        </mxCell>
        <mxCell id="HQag_VCg8Njc-sEDRuP--10" value="" style="shape=image;html=1;verticalAlign=top;verticalLabelPosition=bottom;labelBackgroundColor=#ffffff;imageAspect=0;aspect=fixed;image=https://cdn1.iconfinder.com/data/icons/bootstrap-vol-3/16/hexagon-128.png;rotation=90;" vertex="1" parent="1">
          <mxGeometry x="620" y="180" width="128" height="128" as="geometry" />
        </mxCell>
        <mxCell id="HQag_VCg8Njc-sEDRuP--11" value="" style="shape=image;html=1;verticalAlign=top;verticalLabelPosition=bottom;labelBackgroundColor=#ffffff;imageAspect=0;aspect=fixed;image=https://cdn1.iconfinder.com/data/icons/bootstrap-vol-3/16/hexagon-128.png;rotation=90;" vertex="1" parent="1">
          <mxGeometry x="840" y="180" width="128" height="128" as="geometry" />
        </mxCell>
        <mxCell id="HQag_VCg8Njc-sEDRuP--12" value="" style="shape=image;html=1;verticalAlign=top;verticalLabelPosition=bottom;labelBackgroundColor=#ffffff;imageAspect=0;aspect=fixed;image=https://cdn1.iconfinder.com/data/icons/bootstrap-vol-3/16/hexagon-128.png;rotation=90;" vertex="1" parent="1">
          <mxGeometry x="80" y="270" width="128" height="128" as="geometry" />
        </mxCell>
        <mxCell id="HQag_VCg8Njc-sEDRuP--13" value="" style="shape=image;html=1;verticalAlign=top;verticalLabelPosition=bottom;labelBackgroundColor=#ffffff;imageAspect=0;aspect=fixed;image=https://cdn1.iconfinder.com/data/icons/bootstrap-vol-3/16/hexagon-128.png;rotation=90;" vertex="1" parent="1">
          <mxGeometry x="300" y="270" width="128" height="128" as="geometry" />
        </mxCell>
        <mxCell id="HQag_VCg8Njc-sEDRuP--14" value="" style="shape=image;html=1;verticalAlign=top;verticalLabelPosition=bottom;labelBackgroundColor=#ffffff;imageAspect=0;aspect=fixed;image=https://cdn1.iconfinder.com/data/icons/bootstrap-vol-3/16/hexagon-128.png;rotation=90;" vertex="1" parent="1">
          <mxGeometry x="510" y="270" width="128" height="128" as="geometry" />
        </mxCell>
        <mxCell id="HQag_VCg8Njc-sEDRuP--15" value="" style="shape=image;html=1;verticalAlign=top;verticalLabelPosition=bottom;labelBackgroundColor=#ffffff;imageAspect=0;aspect=fixed;image=https://cdn1.iconfinder.com/data/icons/bootstrap-vol-3/16/hexagon-128.png;rotation=90;" vertex="1" parent="1">
          <mxGeometry x="730" y="270" width="128" height="128" as="geometry" />
        </mxCell>
        <mxCell id="HQag_VCg8Njc-sEDRuP--16" value="" style="shape=image;html=1;verticalAlign=top;verticalLabelPosition=bottom;labelBackgroundColor=#ffffff;imageAspect=0;aspect=fixed;image=https://cdn1.iconfinder.com/data/icons/bootstrap-vol-3/16/hexagon-128.png;rotation=90;" vertex="1" parent="1">
          <mxGeometry x="930" y="270" width="128" height="128" as="geometry" />
        </mxCell>
        <mxCell id="HQag_VCg8Njc-sEDRuP--17" value="" style="shape=image;html=1;verticalAlign=top;verticalLabelPosition=bottom;labelBackgroundColor=#ffffff;imageAspect=0;aspect=fixed;image=https://cdn1.iconfinder.com/data/icons/bootstrap-vol-3/16/hexagon-128.png;rotation=90;" vertex="1" parent="1">
          <mxGeometry x="190" y="390" width="128" height="128" as="geometry" />
        </mxCell>
        <mxCell id="HQag_VCg8Njc-sEDRuP--18" value="" style="shape=image;html=1;verticalAlign=top;verticalLabelPosition=bottom;labelBackgroundColor=#ffffff;imageAspect=0;aspect=fixed;image=https://cdn1.iconfinder.com/data/icons/bootstrap-vol-3/16/hexagon-128.png;rotation=90;" vertex="1" parent="1">
          <mxGeometry x="410" y="390" width="128" height="128" as="geometry" />
        </mxCell>
        <mxCell id="HQag_VCg8Njc-sEDRuP--19" value="" style="shape=image;html=1;verticalAlign=top;verticalLabelPosition=bottom;labelBackgroundColor=#ffffff;imageAspect=0;aspect=fixed;image=https://cdn1.iconfinder.com/data/icons/bootstrap-vol-3/16/hexagon-128.png;rotation=90;" vertex="1" parent="1">
          <mxGeometry x="620" y="390" width="128" height="128" as="geometry" />
        </mxCell>
        <mxCell id="HQag_VCg8Njc-sEDRuP--20" value="" style="shape=image;html=1;verticalAlign=top;verticalLabelPosition=bottom;labelBackgroundColor=#ffffff;imageAspect=0;aspect=fixed;image=https://cdn1.iconfinder.com/data/icons/bootstrap-vol-3/16/hexagon-128.png;rotation=90;" vertex="1" parent="1">
          <mxGeometry x="840" y="390" width="128" height="128" as="geometry" />
        </mxCell>
        <mxCell id="HQag_VCg8Njc-sEDRuP--21" value="" style="shape=image;html=1;verticalAlign=top;verticalLabelPosition=bottom;labelBackgroundColor=#ffffff;imageAspect=0;aspect=fixed;image=https://cdn1.iconfinder.com/data/icons/bootstrap-vol-3/16/hexagon-128.png;rotation=90;" vertex="1" parent="1">
          <mxGeometry x="80" y="500" width="128" height="128" as="geometry" />
        </mxCell>
        <mxCell id="HQag_VCg8Njc-sEDRuP--22" value="" style="shape=image;html=1;verticalAlign=top;verticalLabelPosition=bottom;labelBackgroundColor=#ffffff;imageAspect=0;aspect=fixed;image=https://cdn1.iconfinder.com/data/icons/bootstrap-vol-3/16/hexagon-128.png;rotation=90;" vertex="1" parent="1">
          <mxGeometry x="300" y="500" width="128" height="128" as="geometry" />
        </mxCell>
        <mxCell id="HQag_VCg8Njc-sEDRuP--23" value="" style="shape=image;html=1;verticalAlign=top;verticalLabelPosition=bottom;labelBackgroundColor=#ffffff;imageAspect=0;aspect=fixed;image=https://cdn1.iconfinder.com/data/icons/bootstrap-vol-3/16/hexagon-128.png;rotation=90;" vertex="1" parent="1">
          <mxGeometry x="510" y="500" width="128" height="128" as="geometry" />
        </mxCell>
        <mxCell id="HQag_VCg8Njc-sEDRuP--24" value="" style="shape=image;html=1;verticalAlign=top;verticalLabelPosition=bottom;labelBackgroundColor=#ffffff;imageAspect=0;aspect=fixed;image=https://cdn1.iconfinder.com/data/icons/bootstrap-vol-3/16/hexagon-128.png;rotation=90;" vertex="1" parent="1">
          <mxGeometry x="730" y="500" width="128" height="128" as="geometry" />
        </mxCell>
        <mxCell id="HQag_VCg8Njc-sEDRuP--25" value="" style="shape=image;html=1;verticalAlign=top;verticalLabelPosition=bottom;labelBackgroundColor=#ffffff;imageAspect=0;aspect=fixed;image=https://cdn1.iconfinder.com/data/icons/bootstrap-vol-3/16/hexagon-128.png;rotation=90;" vertex="1" parent="1">
          <mxGeometry x="930" y="500" width="128" height="128" as="geometry" />
        </mxCell>
        <mxCell id="HQag_VCg8Njc-sEDRuP--26" value="&lt;b&gt;&lt;font style=&quot;font-size: 24px;&quot;&gt;UI &amp;amp; UX - Design Solutions&amp;nbsp;&lt;br&gt;&lt;/font&gt;&lt;/b&gt;" style="text;html=1;strokeColor=none;fillColor=none;align=center;verticalAlign=middle;whiteSpace=wrap;rounded=0;" vertex="1" parent="1">
          <mxGeometry x="120" y="-120" width="571" height="80" as="geometry" />
        </mxCell>
        <mxCell id="HQag_VCg8Njc-sEDRuP--27" value="&lt;b&gt;&lt;font style=&quot;font-size: 24px;&quot;&gt;by Martin Drus&lt;br&gt;&lt;/font&gt;&lt;/b&gt;" style="text;html=1;strokeColor=none;fillColor=none;align=center;verticalAlign=middle;whiteSpace=wrap;rounded=0;" vertex="1" parent="1">
          <mxGeometry x="265" y="-100" width="571" height="80" as="geometry" />
        </mxCell>
        <mxCell id="HQag_VCg8Njc-sEDRuP--29" value="Foto" style="text;html=1;strokeColor=none;fillColor=none;align=center;verticalAlign=middle;whiteSpace=wrap;rounded=0;fontSize=24;" vertex="1" parent="1">
          <mxGeometry x="110" y="109" width="60" height="30" as="geometry" />
        </mxCell>
        <mxCell id="HQag_VCg8Njc-sEDRuP--30" value="Foto" style="text;html=1;strokeColor=none;fillColor=none;align=center;verticalAlign=middle;whiteSpace=wrap;rounded=0;fontSize=24;" vertex="1" parent="1">
          <mxGeometry x="444" y="229" width="60" height="30" as="geometry" />
        </mxCell>
        <mxCell id="HQag_VCg8Njc-sEDRuP--31" value="Foto" style="text;html=1;strokeColor=none;fillColor=none;align=center;verticalAlign=middle;whiteSpace=wrap;rounded=0;fontSize=24;" vertex="1" parent="1">
          <mxGeometry x="964" y="319" width="60" height="30" as="geometry" />
        </mxCell>
        <mxCell id="HQag_VCg8Njc-sEDRuP--32" value="Foto" style="text;html=1;strokeColor=none;fillColor=none;align=center;verticalAlign=middle;whiteSpace=wrap;rounded=0;fontSize=24;" vertex="1" parent="1">
          <mxGeometry x="224" y="439" width="60" height="30" as="geometry" />
        </mxCell>
        <mxCell id="HQag_VCg8Njc-sEDRuP--33" value="Foto" style="text;html=1;strokeColor=none;fillColor=none;align=center;verticalAlign=middle;whiteSpace=wrap;rounded=0;fontSize=24;" vertex="1" parent="1">
          <mxGeometry x="654" y="439" width="60" height="30" as="geometry" />
        </mxCell>
        <mxCell id="HQag_VCg8Njc-sEDRuP--34" value="Text" style="text;html=1;strokeColor=none;fillColor=none;align=center;verticalAlign=middle;whiteSpace=wrap;rounded=0;fontSize=24;" vertex="1" parent="1">
          <mxGeometry x="654" y="229" width="60" height="30" as="geometry" />
        </mxCell>
        <mxCell id="HQag_VCg8Njc-sEDRuP--35" value="Text" style="text;html=1;strokeColor=none;fillColor=none;align=center;verticalAlign=middle;whiteSpace=wrap;rounded=0;fontSize=24;" vertex="1" parent="1">
          <mxGeometry x="114" y="319" width="60" height="30" as="geometry" />
        </mxCell>
        <mxCell id="HQag_VCg8Njc-sEDRuP--36" value="Text" style="text;html=1;strokeColor=none;fillColor=none;align=center;verticalAlign=middle;whiteSpace=wrap;rounded=0;fontSize=24;" vertex="1" parent="1">
          <mxGeometry x="964" y="109" width="60" height="30" as="geometry" />
        </mxCell>
        <mxCell id="HQag_VCg8Njc-sEDRuP--37" value="Text" style="text;html=1;strokeColor=none;fillColor=none;align=center;verticalAlign=middle;whiteSpace=wrap;rounded=0;fontSize=24;" vertex="1" parent="1">
          <mxGeometry x="334" y="109" width="60" height="30" as="geometry" />
        </mxCell>
        <mxCell id="HQag_VCg8Njc-sEDRuP--38" value="Text" style="text;html=1;strokeColor=none;fillColor=none;align=center;verticalAlign=middle;whiteSpace=wrap;rounded=0;fontSize=24;" vertex="1" parent="1">
          <mxGeometry x="444" y="439" width="60" height="30" as="geometry" />
        </mxCell>
        <mxCell id="HQag_VCg8Njc-sEDRuP--39" value="About ME" style="text;html=1;strokeColor=#b85450;fillColor=#f8cecc;align=center;verticalAlign=middle;whiteSpace=wrap;rounded=0;fontSize=24;" vertex="1" parent="1">
          <mxGeometry x="750" y="99" width="90" height="50" as="geometry" />
        </mxCell>
        <mxCell id="HQag_VCg8Njc-sEDRuP--40" value="My Projects" style="text;html=1;strokeColor=#b85450;fillColor=#f8cecc;align=center;verticalAlign=middle;whiteSpace=wrap;rounded=0;fontSize=24;" vertex="1" parent="1">
          <mxGeometry x="530" y="309" width="90" height="50" as="geometry" />
        </mxCell>
        <mxCell id="HQag_VCg8Njc-sEDRuP--41" value="Get in touch" style="text;html=1;strokeColor=#b85450;fillColor=#f8cecc;align=center;verticalAlign=middle;whiteSpace=wrap;rounded=0;fontSize=24;" vertex="1" parent="1">
          <mxGeometry x="210" y="214" width="90" height="60" as="geometry" />
        </mxCell>
        <mxCell id="HQag_VCg8Njc-sEDRuP--43" value="LinkIn" style="text;html=1;strokeColor=#b85450;fillColor=#3333FF;align=center;verticalAlign=middle;whiteSpace=wrap;rounded=0;fontSize=24;" vertex="1" parent="1">
          <mxGeometry x="99" y="534" width="90" height="60" as="geometry" />
        </mxCell>
        <mxCell id="HQag_VCg8Njc-sEDRuP--44" value="GitHub" style="text;html=1;strokeColor=#b85450;fillColor=#3333FF;align=center;verticalAlign=middle;whiteSpace=wrap;rounded=0;fontSize=24;" vertex="1" parent="1">
          <mxGeometry x="529" y="534" width="90" height="60" as="geometry" />
        </mxCell>
        <mxCell id="HQag_VCg8Njc-sEDRuP--45" value="Twitter" style="text;html=1;strokeColor=#b85450;fillColor=#3333FF;align=center;verticalAlign=middle;whiteSpace=wrap;rounded=0;fontSize=24;" vertex="1" parent="1">
          <mxGeometry x="949" y="534" width="90" height="60" as="geometry" />
        </mxCell>
        <mxCell id="HQag_VCg8Njc-sEDRuP--46" value="Text" style="text;html=1;strokeColor=none;fillColor=none;align=center;verticalAlign=middle;whiteSpace=wrap;rounded=0;fontSize=24;" vertex="1" parent="1">
          <mxGeometry x="874" y="440" width="60" height="30" as="geometry" />
        </mxCell>
        <mxCell id="HQag_VCg8Njc-sEDRuP--47" value="" style="whiteSpace=wrap;html=1;rounded=0;shadow=0;labelBackgroundColor=none;strokeColor=#000000;strokeWidth=1;fillColor=none;fontFamily=Verdana;fontSize=12;fontColor=#000000;align=center;comic=1;" vertex="1" parent="1">
          <mxGeometry x="40" y="-130" width="1060" height="810" as="geometry" />
        </mxCell>
      </root>
    </mxGraphModel>
  </diagram>
  <diagram id="EDaRqh74dWG1j9Z9ahJO" name="Desktop_About-Me">
    <mxGraphModel dx="1422" dy="832" grid="1" gridSize="10" guides="1" tooltips="1" connect="1" arrows="1" fold="1" page="1" pageScale="1" pageWidth="850" pageHeight="1100" math="0" shadow="0">
      <root>
        <mxCell id="0" />
        <mxCell id="1" parent="0" />
        <mxCell id="-d_bdQDo-rpvYHZssoj2-1" value="" style="whiteSpace=wrap;html=1;rounded=0;shadow=0;labelBackgroundColor=none;strokeColor=#000000;strokeWidth=1;fillColor=none;fontFamily=Verdana;fontSize=12;fontColor=#000000;align=center;comic=1;" vertex="1" parent="1">
          <mxGeometry x="40" y="70" width="1060" height="810" as="geometry" />
        </mxCell>
        <mxCell id="-d_bdQDo-rpvYHZssoj2-2" value="&lt;font style=&quot;font-size: 36px;&quot;&gt;About Me&lt;/font&gt;" style="text;html=1;strokeColor=none;fillColor=none;align=center;verticalAlign=middle;whiteSpace=wrap;rounded=0;labelBackgroundColor=#FFFFFF;labelBorderColor=#FFFFFF;fontSize=24;" vertex="1" parent="1">
          <mxGeometry x="120" y="120" width="450" height="70" as="geometry" />
        </mxCell>
        <mxCell id="-d_bdQDo-rpvYHZssoj2-3" value="Hello World, here I&#39;m going to tell you something about me. What I&#39;ve done so far. What I&#39;m interested in.&amp;nbsp;&amp;nbsp;" style="text;html=1;strokeColor=none;fillColor=none;align=center;verticalAlign=middle;whiteSpace=wrap;rounded=0;labelBackgroundColor=#FFFFFF;labelBorderColor=#FFFFFF;fontSize=36;" vertex="1" parent="1">
          <mxGeometry x="100" y="210" width="940" height="150" as="geometry" />
        </mxCell>
        <mxCell id="FlIaITm4uouUBMjF2gLu-1" value="top" style="ellipse;whiteSpace=wrap;html=1;aspect=fixed;labelBackgroundColor=#FFFFFF;labelBorderColor=#FFFFFF;fontSize=36;fillColor=#3333FF;" vertex="1" parent="1">
          <mxGeometry x="1010" y="790" width="80" height="80" as="geometry" />
        </mxCell>
      </root>
    </mxGraphModel>
  </diagram>
  <diagram id="Dr5gDNWHGPes__5wXQDO" name="Desktop_Get-in-touch">
    <mxGraphModel dx="1422" dy="832" grid="1" gridSize="10" guides="1" tooltips="1" connect="1" arrows="1" fold="1" page="1" pageScale="1" pageWidth="850" pageHeight="1100" math="0" shadow="0">
      <root>
        <mxCell id="0" />
        <mxCell id="1" parent="0" />
        <mxCell id="qwN3McLyx5Dh_kIKMMpS-1" value="&lt;span style=&quot;color: rgba(0, 0, 0, 0); font-family: monospace; font-size: 0px; text-align: start;&quot;&gt;%3CmxGraphModel%3E%3Croot%3E%3CmxCell%20id%3D%220%22%2F%3E%3CmxCell%20id%3D%221%22%20parent%3D%220%22%2F%3E%3CmxCell%20id%3D%222%22%20value%3D%22Feel%20free%20to%20get%20in%20touch.%20I&#39;ll%20answer%20asap%22%20style%3D%22text%3Bhtml%3D1%3BstrokeColor%3Dnone%3BfillColor%3Dnone%3Balign%3Dcenter%3BverticalAlign%3Dmiddle%3BwhiteSpace%3Dwrap%3Brounded%3D0%3BlabelBackgroundColor%3D%23FFFFFF%3BlabelBorderColor%3D%23FFFFFF%3BfontSize%3D36%3B%22%20vertex%3D%221%22%20parent%3D%221%22%3E%3CmxGeometry%20x%3D%22160%22%20y%3D%22100%22%20width%3D%22790%22%20height%3D%2230%22%20as%3D%22geometry%22%2F%3E%3C%2FmxCell%3E%3C%2Froot%3E%3C%2FmxGraphModel%3E&lt;/span&gt;" style="whiteSpace=wrap;html=1;rounded=0;shadow=0;labelBackgroundColor=none;strokeColor=#000000;strokeWidth=1;fillColor=none;fontFamily=Verdana;fontSize=12;fontColor=#000000;align=center;comic=1;" vertex="1" parent="1">
          <mxGeometry x="45" y="100" width="1060" height="810" as="geometry" />
        </mxCell>
        <mxCell id="qwN3McLyx5Dh_kIKMMpS-2" value="Contact Me" style="text;html=1;strokeColor=none;fillColor=none;align=center;verticalAlign=middle;whiteSpace=wrap;rounded=0;labelBackgroundColor=#FFFFFF;labelBorderColor=#FFFFFF;fontSize=36;" vertex="1" parent="1">
          <mxGeometry x="80" y="20" width="370" height="50" as="geometry" />
        </mxCell>
        <mxCell id="qwN3McLyx5Dh_kIKMMpS-10" value="" style="html=1;shadow=0;dashed=0;shape=mxgraph.bootstrap.rrect;rSize=5;strokeColor=#CED4DA;html=1;whiteSpace=wrap;fillColor=#FFFFFF;fontColor=#7D868C;align=left;spacing=15;spacingLeft=40;fontSize=14;labelBackgroundColor=#FFFFFF;labelBorderColor=#FFFFFF;" vertex="1" parent="1">
          <mxGeometry x="140" y="190" width="900" height="40" as="geometry" />
        </mxCell>
        <mxCell id="qwN3McLyx5Dh_kIKMMpS-11" value="First and last name" style="html=1;shadow=0;dashed=0;shape=mxgraph.bootstrap.leftButton;strokeColor=inherit;gradientColor=inherit;fontColor=inherit;fillColor=#E9ECEF;rSize=5;perimeter=none;whiteSpace=wrap;resizeHeight=1;fontSize=14;labelBackgroundColor=#FFFFFF;labelBorderColor=#FFFFFF;" vertex="1" parent="qwN3McLyx5Dh_kIKMMpS-10">
          <mxGeometry width="157.5" height="40" as="geometry" />
        </mxCell>
        <mxCell id="qwN3McLyx5Dh_kIKMMpS-12" value="" style="html=1;shadow=0;dashed=0;shape=mxgraph.bootstrap.rightButton;strokeColor=inherit;gradientColor=inherit;fontColor=inherit;fillColor=none;rSize=5;perimeter=none;whiteSpace=wrap;resizeHeight=1;fontSize=14;labelBackgroundColor=#FFFFFF;labelBorderColor=#FFFFFF;" vertex="1" parent="qwN3McLyx5Dh_kIKMMpS-10">
          <mxGeometry x="1" width="370" height="40" relative="1" as="geometry">
            <mxPoint x="-370" as="offset" />
          </mxGeometry>
        </mxCell>
        <mxCell id="qwN3McLyx5Dh_kIKMMpS-13" value="Default text" style="strokeWidth=1;html=1;shadow=0;dashed=0;shape=mxgraph.ios.iTextInput;strokeColor=#444444;buttonText=;fontSize=8;whiteSpace=wrap;align=left;labelBackgroundColor=#FFFFFF;labelBorderColor=#FFFFFF;fillColor=#3333FF;" vertex="1" parent="1">
          <mxGeometry x="140" y="300" width="900" height="180" as="geometry" />
        </mxCell>
        <mxCell id="qwN3McLyx5Dh_kIKMMpS-14" value="" style="html=1;shadow=0;dashed=0;shape=mxgraph.bootstrap.rrect;rSize=5;strokeColor=#CED4DA;html=1;whiteSpace=wrap;fillColor=#FFFFFF;fontColor=#7D868C;align=left;spacingLeft=80;spacing=15;fontSize=14;labelBackgroundColor=#FFFFFF;labelBorderColor=#FFFFFF;" vertex="1" parent="1">
          <mxGeometry x="140" y="240" width="900" height="40" as="geometry" />
        </mxCell>
        <mxCell id="qwN3McLyx5Dh_kIKMMpS-15" value="" style="shape=triangle;direction=south;fillColor=#343A40;strokeColor=none;perimeter=none;labelBackgroundColor=#FFFFFF;labelBorderColor=#FFFFFF;fontSize=36;" vertex="1" parent="qwN3McLyx5Dh_kIKMMpS-14">
          <mxGeometry x="1" y="0.5" width="7" height="3" relative="1" as="geometry">
            <mxPoint x="-17" y="1" as="offset" />
          </mxGeometry>
        </mxCell>
        <mxCell id="qwN3McLyx5Dh_kIKMMpS-16" value="" style="shape=triangle;direction=north;fillColor=#343A40;strokeColor=none;perimeter=none;labelBackgroundColor=#FFFFFF;labelBorderColor=#FFFFFF;fontSize=36;" vertex="1" parent="qwN3McLyx5Dh_kIKMMpS-14">
          <mxGeometry x="1" y="0.5" width="7" height="3" relative="1" as="geometry">
            <mxPoint x="-17" y="-4" as="offset" />
          </mxGeometry>
        </mxCell>
        <mxCell id="qwN3McLyx5Dh_kIKMMpS-17" value="Options" style="html=1;shadow=0;dashed=0;shape=mxgraph.bootstrap.leftButton;strokeColor=#CED4DA;gradientColor=inherit;fontColor=inherit;fillColor=#E9ECEF;rSize=5;perimeter=none;whiteSpace=wrap;resizeHeight=1;fontSize=14;align=left;spacing=15;labelBackgroundColor=#FFFFFF;labelBorderColor=#FFFFFF;" vertex="1" parent="qwN3McLyx5Dh_kIKMMpS-14">
          <mxGeometry width="80" height="40" relative="1" as="geometry" />
        </mxCell>
        <mxCell id="qwN3McLyx5Dh_kIKMMpS-18" value="Feel free to get in touch. I&#39;ll answer asap" style="text;html=1;strokeColor=none;fillColor=none;align=center;verticalAlign=middle;whiteSpace=wrap;rounded=0;labelBackgroundColor=#FFFFFF;labelBorderColor=#FFFFFF;fontSize=36;" vertex="1" parent="1">
          <mxGeometry x="160" y="100" width="790" height="30" as="geometry" />
        </mxCell>
        <mxCell id="qwN3McLyx5Dh_kIKMMpS-19" value="Check my social media accounts" style="text;html=1;strokeColor=none;fillColor=none;align=center;verticalAlign=middle;whiteSpace=wrap;rounded=0;labelBackgroundColor=#FFFFFF;labelBorderColor=#FFFFFF;fontSize=36;" vertex="1" parent="1">
          <mxGeometry x="180" y="520" width="790" height="30" as="geometry" />
        </mxCell>
        <mxCell id="qwN3McLyx5Dh_kIKMMpS-20" value="" style="dashed=0;outlineConnect=0;html=1;align=center;labelPosition=center;verticalLabelPosition=bottom;verticalAlign=top;shape=mxgraph.webicons.twitter;fillColor=#49EAF7;gradientColor=#137BD0;labelBackgroundColor=#FFFFFF;labelBorderColor=#FFFFFF;fontSize=36;" vertex="1" parent="1">
          <mxGeometry x="530" y="650" width="102.4" height="102.4" as="geometry" />
        </mxCell>
        <mxCell id="qwN3McLyx5Dh_kIKMMpS-21" value="" style="verticalLabelPosition=bottom;html=1;verticalAlign=top;align=center;strokeColor=none;fillColor=#00BEF2;shape=mxgraph.azure.github_code;pointerEvents=1;labelBackgroundColor=#FFFFFF;labelBorderColor=#FFFFFF;fontSize=36;" vertex="1" parent="1">
          <mxGeometry x="290" y="650" width="110" height="100" as="geometry" />
        </mxCell>
        <mxCell id="qwN3McLyx5Dh_kIKMMpS-22" value="" style="dashed=0;outlineConnect=0;html=1;align=center;labelPosition=center;verticalLabelPosition=bottom;verticalAlign=top;shape=mxgraph.webicons.linkedin;fillColor=#0095DB;gradientColor=#006391;labelBackgroundColor=#FFFFFF;labelBorderColor=#FFFFFF;fontSize=36;" vertex="1" parent="1">
          <mxGeometry x="800" y="650" width="102.4" height="102.4" as="geometry" />
        </mxCell>
        <mxCell id="vanH7Hqy7JWSX7cfGDVM-1" value="top" style="ellipse;whiteSpace=wrap;html=1;aspect=fixed;labelBackgroundColor=#FFFFFF;labelBorderColor=#FFFFFF;fontSize=36;fillColor=#3333FF;" vertex="1" parent="1">
          <mxGeometry x="1010" y="820" width="80" height="80" as="geometry" />
        </mxCell>
      </root>
    </mxGraphModel>
  </diagram>
  <diagram id="_vjm3HC13pXf-T2ZKwVk" name="Desktop_My-Projects">
    <mxGraphModel dx="1422" dy="832" grid="1" gridSize="10" guides="1" tooltips="1" connect="1" arrows="1" fold="1" page="1" pageScale="1" pageWidth="850" pageHeight="1100" math="0" shadow="0">
      <root>
        <mxCell id="0" />
        <mxCell id="1" parent="0" />
        <mxCell id="0fKRASsqdoXXgyMYBIkb-1" value="My Projects" style="text;html=1;strokeColor=none;fillColor=none;align=center;verticalAlign=middle;whiteSpace=wrap;rounded=0;labelBackgroundColor=#FFFFFF;labelBorderColor=#FFFFFF;fontSize=36;" vertex="1" parent="1">
          <mxGeometry x="280" y="30" width="315" height="30" as="geometry" />
        </mxCell>
        <mxCell id="0fKRASsqdoXXgyMYBIkb-2" value="" style="shape=image;html=1;verticalAlign=top;verticalLabelPosition=bottom;labelBackgroundColor=#ffffff;imageAspect=0;aspect=fixed;image=https://cdn4.iconfinder.com/data/icons/computer-and-web-2/500/Tile-128.png;labelBorderColor=#FFFFFF;fontSize=36;fillColor=#3333FF;" vertex="1" parent="1">
          <mxGeometry x="180" y="200" width="542.5" height="542.5" as="geometry" />
        </mxCell>
        <mxCell id="0fKRASsqdoXXgyMYBIkb-7" value="Html / CSS" style="text;html=1;strokeColor=none;fillColor=none;align=center;verticalAlign=middle;whiteSpace=wrap;rounded=0;labelBackgroundColor=#FFFFFF;labelBorderColor=#FFFFFF;fontSize=36;" vertex="1" parent="1">
          <mxGeometry x="287.5" y="210" width="300" height="30" as="geometry" />
        </mxCell>
        <mxCell id="0fKRASsqdoXXgyMYBIkb-8" value="top" style="ellipse;whiteSpace=wrap;html=1;aspect=fixed;labelBackgroundColor=#FFFFFF;labelBorderColor=#FFFFFF;fontSize=36;fillColor=#3333FF;" vertex="1" parent="1">
          <mxGeometry x="760" y="1010" width="80" height="80" as="geometry" />
        </mxCell>
      </root>
    </mxGraphModel>
  </diagram>
  <diagram id="Y4KTt3qSy5A-Lv_yXXne" name="Mobile_Homepage">
    <mxGraphModel dx="1422" dy="1932" grid="1" gridSize="10" guides="1" tooltips="1" connect="1" arrows="1" fold="1" page="1" pageScale="1" pageWidth="850" pageHeight="1100" math="0" shadow="0">
      <root>
        <mxCell id="0" />
        <mxCell id="1" parent="0" />
        <mxCell id="eLm_brv41OH1lldiyFbI-1" value="" style="whiteSpace=wrap;html=1;rounded=0;shadow=0;labelBackgroundColor=none;strokeColor=#000000;strokeWidth=1;fillColor=none;fontFamily=Verdana;fontSize=12;fontColor=#000000;align=center;comic=1;" vertex="1" parent="1">
          <mxGeometry x="190" y="-120" width="480" height="1580" as="geometry" />
        </mxCell>
        <mxCell id="ko7Eqrb8CaOPcTz2_YTC-1" value="" style="shape=image;html=1;verticalAlign=top;verticalLabelPosition=bottom;labelBackgroundColor=#ffffff;imageAspect=0;aspect=fixed;image=https://cdn1.iconfinder.com/data/icons/bootstrap-vol-3/16/hexagon-128.png;labelBorderColor=#FFFFFF;fontSize=36;fillColor=#3333FF;rotation=90;" vertex="1" parent="1">
          <mxGeometry x="316" y="-18" width="218" height="218" as="geometry" />
        </mxCell>
        <mxCell id="ko7Eqrb8CaOPcTz2_YTC-2" value="" style="shape=image;html=1;verticalAlign=top;verticalLabelPosition=bottom;labelBackgroundColor=#ffffff;imageAspect=0;aspect=fixed;image=https://cdn1.iconfinder.com/data/icons/bootstrap-vol-3/16/hexagon-128.png;labelBorderColor=#FFFFFF;fontSize=36;fillColor=#3333FF;rotation=90;" vertex="1" parent="1">
          <mxGeometry x="316" y="200" width="218" height="218" as="geometry" />
        </mxCell>
        <mxCell id="ko7Eqrb8CaOPcTz2_YTC-3" value="" style="shape=image;html=1;verticalAlign=top;verticalLabelPosition=bottom;labelBackgroundColor=#ffffff;imageAspect=0;aspect=fixed;image=https://cdn1.iconfinder.com/data/icons/bootstrap-vol-3/16/hexagon-128.png;labelBorderColor=#FFFFFF;fontSize=36;fillColor=#3333FF;rotation=90;" vertex="1" parent="1">
          <mxGeometry x="321" y="450" width="218" height="218" as="geometry" />
        </mxCell>
        <mxCell id="ko7Eqrb8CaOPcTz2_YTC-6" value="" style="shape=image;html=1;verticalAlign=top;verticalLabelPosition=bottom;labelBackgroundColor=#ffffff;imageAspect=0;aspect=fixed;image=https://cdn1.iconfinder.com/data/icons/bootstrap-vol-3/16/hexagon-128.png;labelBorderColor=#FFFFFF;fontSize=36;fillColor=#3333FF;rotation=90;" vertex="1" parent="1">
          <mxGeometry x="321" y="690" width="218" height="218" as="geometry" />
        </mxCell>
        <mxCell id="ko7Eqrb8CaOPcTz2_YTC-7" value="" style="shape=image;html=1;verticalAlign=top;verticalLabelPosition=bottom;labelBackgroundColor=#ffffff;imageAspect=0;aspect=fixed;image=https://cdn1.iconfinder.com/data/icons/bootstrap-vol-3/16/hexagon-128.png;labelBorderColor=#FFFFFF;fontSize=36;fillColor=#3333FF;rotation=90;" vertex="1" parent="1">
          <mxGeometry x="321" y="900" width="218" height="218" as="geometry" />
        </mxCell>
        <mxCell id="_FjmdGKoC_THpGq605Mr-1" value="UI &amp;amp; UX Design&amp;nbsp;" style="text;html=1;strokeColor=none;fillColor=none;align=center;verticalAlign=middle;whiteSpace=wrap;rounded=0;labelBackgroundColor=#FFFFFF;labelBorderColor=#FFFFFF;fontSize=36;" vertex="1" parent="1">
          <mxGeometry x="292.5" y="-90" width="280" height="30" as="geometry" />
        </mxCell>
        <mxCell id="_FjmdGKoC_THpGq605Mr-3" value="Foto" style="text;html=1;strokeColor=none;fillColor=none;align=center;verticalAlign=middle;whiteSpace=wrap;rounded=0;labelBackgroundColor=#FFFFFF;labelBorderColor=#FFFFFF;fontSize=36;" vertex="1" parent="1">
          <mxGeometry x="390" y="76" width="60" height="30" as="geometry" />
        </mxCell>
        <mxCell id="_FjmdGKoC_THpGq605Mr-4" value="About me" style="text;html=1;strokeColor=none;fillColor=none;align=center;verticalAlign=middle;whiteSpace=wrap;rounded=0;labelBackgroundColor=#FFFFFF;labelBorderColor=#FFFFFF;fontSize=36;" vertex="1" parent="1">
          <mxGeometry x="360" y="300" width="130" height="30" as="geometry" />
        </mxCell>
        <mxCell id="_FjmdGKoC_THpGq605Mr-5" value="My Projects" style="text;html=1;strokeColor=none;fillColor=none;align=center;verticalAlign=middle;whiteSpace=wrap;rounded=0;labelBackgroundColor=#FFFFFF;labelBorderColor=#FFFFFF;fontSize=36;" vertex="1" parent="1">
          <mxGeometry x="390" y="535" width="85" height="30" as="geometry" />
        </mxCell>
        <mxCell id="_FjmdGKoC_THpGq605Mr-6" value="Get in touch" style="text;html=1;strokeColor=none;fillColor=none;align=center;verticalAlign=middle;whiteSpace=wrap;rounded=0;labelBackgroundColor=#FFFFFF;labelBorderColor=#FFFFFF;fontSize=36;" vertex="1" parent="1">
          <mxGeometry x="370" y="770" width="120" height="60" as="geometry" />
        </mxCell>
        <mxCell id="_FjmdGKoC_THpGq605Mr-7" value="Back to top" style="text;html=1;strokeColor=none;fillColor=none;align=center;verticalAlign=middle;whiteSpace=wrap;rounded=0;labelBackgroundColor=#FFFFFF;labelBorderColor=#FFFFFF;fontSize=36;" vertex="1" parent="1">
          <mxGeometry x="370" y="990" width="120" height="30" as="geometry" />
        </mxCell>
        <mxCell id="_FjmdGKoC_THpGq605Mr-8" value="" style="verticalLabelPosition=bottom;html=1;verticalAlign=top;align=center;strokeColor=none;fillColor=#00BEF2;shape=mxgraph.azure.github_code;pointerEvents=1;labelBackgroundColor=#FFFFFF;labelBorderColor=#FFFFFF;fontSize=36;" vertex="1" parent="1">
          <mxGeometry x="360" y="1200" width="145" height="130" as="geometry" />
        </mxCell>
        <mxCell id="_FjmdGKoC_THpGq605Mr-9" value="" style="dashed=0;outlineConnect=0;html=1;align=center;labelPosition=center;verticalLabelPosition=bottom;verticalAlign=top;shape=mxgraph.webicons.twitter;fillColor=#49EAF7;gradientColor=#137BD0;labelBackgroundColor=#FFFFFF;labelBorderColor=#FFFFFF;fontSize=36;" vertex="1" parent="1">
          <mxGeometry x="230" y="1320" width="110" height="100" as="geometry" />
        </mxCell>
        <mxCell id="_FjmdGKoC_THpGq605Mr-10" value="" style="dashed=0;outlineConnect=0;html=1;align=center;labelPosition=center;verticalLabelPosition=bottom;verticalAlign=top;shape=mxgraph.webicons.linkedin;fillColor=#0095DB;gradientColor=#006391;labelBackgroundColor=#FFFFFF;labelBorderColor=#FFFFFF;fontSize=36;" vertex="1" parent="1">
          <mxGeometry x="530" y="1320" width="102.4" height="102.4" as="geometry" />
        </mxCell>
      </root>
    </mxGraphModel>
  </diagram>
  <diagram id="6U1dQWv0l7KMV_CQTgip" name="Mobile_About-Me">
    <mxGraphModel dx="1422" dy="1932" grid="1" gridSize="10" guides="1" tooltips="1" connect="1" arrows="1" fold="1" page="1" pageScale="1" pageWidth="850" pageHeight="1100" math="0" shadow="0">
      <root>
        <mxCell id="0" />
        <mxCell id="1" parent="0" />
        <mxCell id="5YiidrGqpL7mC74CM9wF-1" value="" style="whiteSpace=wrap;html=1;rounded=0;shadow=0;labelBackgroundColor=none;strokeColor=#000000;strokeWidth=1;fillColor=none;fontFamily=Verdana;fontSize=12;fontColor=#000000;align=center;comic=1;" vertex="1" parent="1">
          <mxGeometry x="190" y="-120" width="480" height="1380" as="geometry" />
        </mxCell>
        <mxCell id="5YiidrGqpL7mC74CM9wF-2" value="" style="shape=image;html=1;verticalAlign=top;verticalLabelPosition=bottom;labelBackgroundColor=#ffffff;imageAspect=0;aspect=fixed;image=https://cdn1.iconfinder.com/data/icons/bootstrap-vol-3/16/hexagon-128.png;labelBorderColor=#FFFFFF;fontSize=36;fillColor=#3333FF;rotation=90;" vertex="1" parent="1">
          <mxGeometry x="316" y="-18" width="218" height="218" as="geometry" />
        </mxCell>
        <mxCell id="5YiidrGqpL7mC74CM9wF-3" value="" style="shape=image;html=1;verticalAlign=top;verticalLabelPosition=bottom;labelBackgroundColor=#ffffff;imageAspect=0;aspect=fixed;image=https://cdn1.iconfinder.com/data/icons/bootstrap-vol-3/16/hexagon-128.png;labelBorderColor=#FFFFFF;fontSize=36;fillColor=#3333FF;rotation=90;" vertex="1" parent="1">
          <mxGeometry x="207" y="210" width="448" height="448" as="geometry" />
        </mxCell>
        <mxCell id="5YiidrGqpL7mC74CM9wF-6" value="" style="shape=image;html=1;verticalAlign=top;verticalLabelPosition=bottom;labelBackgroundColor=#ffffff;imageAspect=0;aspect=fixed;image=https://cdn1.iconfinder.com/data/icons/bootstrap-vol-3/16/hexagon-128.png;labelBorderColor=#FFFFFF;fontSize=36;fillColor=#3333FF;rotation=90;" vertex="1" parent="1">
          <mxGeometry x="321" y="670" width="218" height="218" as="geometry" />
        </mxCell>
        <mxCell id="5YiidrGqpL7mC74CM9wF-7" value="About Me" style="text;html=1;strokeColor=none;fillColor=none;align=center;verticalAlign=middle;whiteSpace=wrap;rounded=0;labelBackgroundColor=#FFFFFF;labelBorderColor=#FFFFFF;fontSize=36;" vertex="1" parent="1">
          <mxGeometry x="259" y="-83.2" width="280" height="30" as="geometry" />
        </mxCell>
        <mxCell id="5YiidrGqpL7mC74CM9wF-8" value="" style="html=1;verticalLabelPosition=bottom;align=center;labelBackgroundColor=#ffffff;verticalAlign=top;strokeWidth=2;strokeColor=#0080F0;shadow=0;dashed=0;shape=mxgraph.ios7.icons.most_viewed;pointerEvents=1;labelBorderColor=#FFFFFF;fontSize=36;fillColor=#3333FF;" vertex="1" parent="1">
          <mxGeometry x="590" y="-86.4" width="50" height="36.4" as="geometry" />
        </mxCell>
        <mxCell id="5YiidrGqpL7mC74CM9wF-9" value="Foto" style="text;html=1;strokeColor=none;fillColor=none;align=center;verticalAlign=middle;whiteSpace=wrap;rounded=0;labelBackgroundColor=#FFFFFF;labelBorderColor=#FFFFFF;fontSize=36;" vertex="1" parent="1">
          <mxGeometry x="390" y="76" width="60" height="30" as="geometry" />
        </mxCell>
        <mxCell id="5YiidrGqpL7mC74CM9wF-13" value="Back to top" style="text;html=1;strokeColor=none;fillColor=none;align=center;verticalAlign=middle;whiteSpace=wrap;rounded=0;labelBackgroundColor=#FFFFFF;labelBorderColor=#FFFFFF;fontSize=36;" vertex="1" parent="1">
          <mxGeometry x="370" y="764" width="120" height="30" as="geometry" />
        </mxCell>
        <mxCell id="5YiidrGqpL7mC74CM9wF-14" value="" style="verticalLabelPosition=bottom;html=1;verticalAlign=top;align=center;strokeColor=none;fillColor=#00BEF2;shape=mxgraph.azure.github_code;pointerEvents=1;labelBackgroundColor=#FFFFFF;labelBorderColor=#FFFFFF;fontSize=36;" vertex="1" parent="1">
          <mxGeometry x="357.5" y="950" width="145" height="130" as="geometry" />
        </mxCell>
        <mxCell id="5YiidrGqpL7mC74CM9wF-15" value="" style="dashed=0;outlineConnect=0;html=1;align=center;labelPosition=center;verticalLabelPosition=bottom;verticalAlign=top;shape=mxgraph.webicons.twitter;fillColor=#49EAF7;gradientColor=#137BD0;labelBackgroundColor=#FFFFFF;labelBorderColor=#FFFFFF;fontSize=36;" vertex="1" parent="1">
          <mxGeometry x="220" y="1120" width="110" height="100" as="geometry" />
        </mxCell>
        <mxCell id="5YiidrGqpL7mC74CM9wF-16" value="" style="dashed=0;outlineConnect=0;html=1;align=center;labelPosition=center;verticalLabelPosition=bottom;verticalAlign=top;shape=mxgraph.webicons.linkedin;fillColor=#0095DB;gradientColor=#006391;labelBackgroundColor=#FFFFFF;labelBorderColor=#FFFFFF;fontSize=36;" vertex="1" parent="1">
          <mxGeometry x="534" y="1117.6" width="102.4" height="102.4" as="geometry" />
        </mxCell>
        <mxCell id="5YiidrGqpL7mC74CM9wF-20" value="lorem100" style="text;html=1;strokeColor=none;fillColor=none;align=center;verticalAlign=middle;whiteSpace=wrap;rounded=0;labelBackgroundColor=#FFFFFF;labelBorderColor=#FFFFFF;fontSize=36;" vertex="1" parent="1">
          <mxGeometry x="400" y="410" width="60" height="30" as="geometry" />
        </mxCell>
        <mxCell id="wQx8yZgJ8RCrUN18kXs--2" style="edgeStyle=orthogonalEdgeStyle;rounded=0;orthogonalLoop=1;jettySize=auto;html=1;exitX=1;exitY=0.75;exitDx=0;exitDy=0;entryX=0.998;entryY=0.038;entryDx=0;entryDy=0;entryPerimeter=0;fontSize=49;" edge="1" parent="1" source="wQx8yZgJ8RCrUN18kXs--1" target="5YiidrGqpL7mC74CM9wF-1">
          <mxGeometry relative="1" as="geometry" />
        </mxCell>
        <mxCell id="wQx8yZgJ8RCrUN18kXs--1" value="Über das Bürgermenü soll es möglich sein zur Home- sowie den anderen Pages zu navigieren" style="text;html=1;strokeColor=none;fillColor=none;align=center;verticalAlign=middle;whiteSpace=wrap;rounded=0;labelBackgroundColor=#FFFFFF;labelBorderColor=#FFFFFF;fontSize=36;" vertex="1" parent="1">
          <mxGeometry x="180" y="-480" width="530" height="290" as="geometry" />
        </mxCell>
      </root>
    </mxGraphModel>
  </diagram>
  <diagram id="Kp4iICjxPJUK7I3Q6vea" name="Mobile_Get-in-touch">
    <mxGraphModel dx="1422" dy="1932" grid="1" gridSize="10" guides="1" tooltips="1" connect="1" arrows="1" fold="1" page="1" pageScale="1" pageWidth="850" pageHeight="1100" math="0" shadow="0">
      <root>
        <mxCell id="0" />
        <mxCell id="1" parent="0" />
        <mxCell id="gOX9VXT5ydHAOdm6KhI--1" value="" style="whiteSpace=wrap;html=1;rounded=0;shadow=0;labelBackgroundColor=none;strokeColor=#000000;strokeWidth=1;fillColor=none;fontFamily=Verdana;fontSize=12;fontColor=#000000;align=center;comic=1;" vertex="1" parent="1">
          <mxGeometry x="190" y="-120" width="480" height="1580" as="geometry" />
        </mxCell>
        <mxCell id="gOX9VXT5ydHAOdm6KhI--2" value="" style="shape=image;html=1;verticalAlign=top;verticalLabelPosition=bottom;labelBackgroundColor=#ffffff;imageAspect=0;aspect=fixed;image=https://cdn1.iconfinder.com/data/icons/bootstrap-vol-3/16/hexagon-128.png;labelBorderColor=#FFFFFF;fontSize=36;fillColor=#3333FF;rotation=90;" vertex="1" parent="1">
          <mxGeometry x="316" y="-18" width="218" height="218" as="geometry" />
        </mxCell>
        <mxCell id="gOX9VXT5ydHAOdm6KhI--3" value="" style="shape=image;html=1;verticalAlign=top;verticalLabelPosition=bottom;labelBackgroundColor=#ffffff;imageAspect=0;aspect=fixed;image=https://cdn1.iconfinder.com/data/icons/bootstrap-vol-3/16/hexagon-128.png;labelBorderColor=#FFFFFF;fontSize=36;fillColor=#3333FF;rotation=90;" vertex="1" parent="1">
          <mxGeometry x="316" y="200" width="218" height="218" as="geometry" />
        </mxCell>
        <mxCell id="gOX9VXT5ydHAOdm6KhI--4" value="" style="shape=image;html=1;verticalAlign=top;verticalLabelPosition=bottom;labelBackgroundColor=#ffffff;imageAspect=0;aspect=fixed;image=https://cdn1.iconfinder.com/data/icons/bootstrap-vol-3/16/hexagon-128.png;labelBorderColor=#FFFFFF;fontSize=36;fillColor=#3333FF;rotation=90;" vertex="1" parent="1">
          <mxGeometry x="321" y="450" width="218" height="218" as="geometry" />
        </mxCell>
        <mxCell id="gOX9VXT5ydHAOdm6KhI--5" value="" style="shape=image;html=1;verticalAlign=top;verticalLabelPosition=bottom;labelBackgroundColor=#ffffff;imageAspect=0;aspect=fixed;image=https://cdn1.iconfinder.com/data/icons/bootstrap-vol-3/16/hexagon-128.png;labelBorderColor=#FFFFFF;fontSize=36;fillColor=#3333FF;rotation=90;" vertex="1" parent="1">
          <mxGeometry x="321" y="690" width="218" height="218" as="geometry" />
        </mxCell>
        <mxCell id="gOX9VXT5ydHAOdm6KhI--6" value="" style="shape=image;html=1;verticalAlign=top;verticalLabelPosition=bottom;labelBackgroundColor=#ffffff;imageAspect=0;aspect=fixed;image=https://cdn1.iconfinder.com/data/icons/bootstrap-vol-3/16/hexagon-128.png;labelBorderColor=#FFFFFF;fontSize=36;fillColor=#3333FF;rotation=90;" vertex="1" parent="1">
          <mxGeometry x="321" y="900" width="218" height="218" as="geometry" />
        </mxCell>
        <mxCell id="gOX9VXT5ydHAOdm6KhI--7" value="UI &amp;amp; UX Design&amp;nbsp;" style="text;html=1;strokeColor=none;fillColor=none;align=center;verticalAlign=middle;whiteSpace=wrap;rounded=0;labelBackgroundColor=#FFFFFF;labelBorderColor=#FFFFFF;fontSize=36;" vertex="1" parent="1">
          <mxGeometry x="240" y="-90" width="280" height="30" as="geometry" />
        </mxCell>
        <mxCell id="gOX9VXT5ydHAOdm6KhI--8" value="" style="html=1;verticalLabelPosition=bottom;align=center;labelBackgroundColor=#ffffff;verticalAlign=top;strokeWidth=2;strokeColor=#0080F0;shadow=0;dashed=0;shape=mxgraph.ios7.icons.most_viewed;pointerEvents=1;labelBorderColor=#FFFFFF;fontSize=36;fillColor=#3333FF;" vertex="1" parent="1">
          <mxGeometry x="590" y="-86.4" width="50" height="36.4" as="geometry" />
        </mxCell>
        <mxCell id="gOX9VXT5ydHAOdm6KhI--9" value="Foto" style="text;html=1;strokeColor=none;fillColor=none;align=center;verticalAlign=middle;whiteSpace=wrap;rounded=0;labelBackgroundColor=#FFFFFF;labelBorderColor=#FFFFFF;fontSize=36;" vertex="1" parent="1">
          <mxGeometry x="390" y="76" width="60" height="30" as="geometry" />
        </mxCell>
        <mxCell id="gOX9VXT5ydHAOdm6KhI--10" value="About me" style="text;html=1;strokeColor=none;fillColor=none;align=center;verticalAlign=middle;whiteSpace=wrap;rounded=0;labelBackgroundColor=#FFFFFF;labelBorderColor=#FFFFFF;fontSize=36;" vertex="1" parent="1">
          <mxGeometry x="360" y="300" width="130" height="30" as="geometry" />
        </mxCell>
        <mxCell id="gOX9VXT5ydHAOdm6KhI--11" value="My Projects" style="text;html=1;strokeColor=none;fillColor=none;align=center;verticalAlign=middle;whiteSpace=wrap;rounded=0;labelBackgroundColor=#FFFFFF;labelBorderColor=#FFFFFF;fontSize=36;" vertex="1" parent="1">
          <mxGeometry x="390" y="535" width="85" height="30" as="geometry" />
        </mxCell>
        <mxCell id="gOX9VXT5ydHAOdm6KhI--12" value="Get in touch" style="text;html=1;strokeColor=none;fillColor=none;align=center;verticalAlign=middle;whiteSpace=wrap;rounded=0;labelBackgroundColor=#FFFFFF;labelBorderColor=#FFFFFF;fontSize=36;" vertex="1" parent="1">
          <mxGeometry x="370" y="770" width="120" height="60" as="geometry" />
        </mxCell>
        <mxCell id="gOX9VXT5ydHAOdm6KhI--13" value="Back to top" style="text;html=1;strokeColor=none;fillColor=none;align=center;verticalAlign=middle;whiteSpace=wrap;rounded=0;labelBackgroundColor=#FFFFFF;labelBorderColor=#FFFFFF;fontSize=36;" vertex="1" parent="1">
          <mxGeometry x="370" y="990" width="120" height="30" as="geometry" />
        </mxCell>
        <mxCell id="gOX9VXT5ydHAOdm6KhI--14" value="" style="verticalLabelPosition=bottom;html=1;verticalAlign=top;align=center;strokeColor=none;fillColor=#00BEF2;shape=mxgraph.azure.github_code;pointerEvents=1;labelBackgroundColor=#FFFFFF;labelBorderColor=#FFFFFF;fontSize=36;" vertex="1" parent="1">
          <mxGeometry x="360" y="1200" width="145" height="130" as="geometry" />
        </mxCell>
        <mxCell id="gOX9VXT5ydHAOdm6KhI--15" value="" style="dashed=0;outlineConnect=0;html=1;align=center;labelPosition=center;verticalLabelPosition=bottom;verticalAlign=top;shape=mxgraph.webicons.twitter;fillColor=#49EAF7;gradientColor=#137BD0;labelBackgroundColor=#FFFFFF;labelBorderColor=#FFFFFF;fontSize=36;" vertex="1" parent="1">
          <mxGeometry x="230" y="1320" width="110" height="100" as="geometry" />
        </mxCell>
        <mxCell id="gOX9VXT5ydHAOdm6KhI--16" value="" style="dashed=0;outlineConnect=0;html=1;align=center;labelPosition=center;verticalLabelPosition=bottom;verticalAlign=top;shape=mxgraph.webicons.linkedin;fillColor=#0095DB;gradientColor=#006391;labelBackgroundColor=#FFFFFF;labelBorderColor=#FFFFFF;fontSize=36;" vertex="1" parent="1">
          <mxGeometry x="530" y="1320" width="102.4" height="102.4" as="geometry" />
        </mxCell>
        <mxCell id="vQjpZJwH_g-8ozQTQQJr-2" style="edgeStyle=orthogonalEdgeStyle;rounded=0;orthogonalLoop=1;jettySize=auto;html=1;exitX=1;exitY=0.75;exitDx=0;exitDy=0;entryX=0.998;entryY=0.041;entryDx=0;entryDy=0;entryPerimeter=0;fontSize=49;" edge="1" parent="1" source="vQjpZJwH_g-8ozQTQQJr-1" target="gOX9VXT5ydHAOdm6KhI--1">
          <mxGeometry relative="1" as="geometry" />
        </mxCell>
        <mxCell id="vQjpZJwH_g-8ozQTQQJr-1" value="Über das Bürgermenü soll es möglich sein zur Home- sowie den anderen Pages zu navigieren" style="text;html=1;strokeColor=none;fillColor=none;align=center;verticalAlign=middle;whiteSpace=wrap;rounded=0;labelBackgroundColor=#FFFFFF;labelBorderColor=#FFFFFF;fontSize=36;" vertex="1" parent="1">
          <mxGeometry x="180" y="-480" width="530" height="290" as="geometry" />
        </mxCell>
      </root>
    </mxGraphModel>
  </diagram>
  <diagram id="8PGGjPPeho9clqYzhR8R" name="Mobile_My-Projects">
    <mxGraphModel dx="1422" dy="1932" grid="1" gridSize="10" guides="1" tooltips="1" connect="1" arrows="1" fold="1" page="1" pageScale="1" pageWidth="850" pageHeight="1100" math="0" shadow="0">
      <root>
        <mxCell id="0" />
        <mxCell id="1" parent="0" />
        <mxCell id="WDk9t2JCO1CVOHtqvnAU-1" value="" style="whiteSpace=wrap;html=1;rounded=0;shadow=0;labelBackgroundColor=none;strokeColor=#000000;strokeWidth=1;fillColor=none;fontFamily=Verdana;fontSize=12;fontColor=#000000;align=center;comic=1;" vertex="1" parent="1">
          <mxGeometry x="190" y="-130" width="480" height="1590" as="geometry" />
        </mxCell>
        <mxCell id="WDk9t2JCO1CVOHtqvnAU-2" value="" style="shape=image;html=1;verticalAlign=top;verticalLabelPosition=bottom;labelBackgroundColor=#ffffff;imageAspect=0;aspect=fixed;image=https://cdn1.iconfinder.com/data/icons/bootstrap-vol-3/16/hexagon-128.png;labelBorderColor=#FFFFFF;fontSize=36;fillColor=#3333FF;rotation=90;" vertex="1" parent="1">
          <mxGeometry x="316" y="-18" width="218" height="218" as="geometry" />
        </mxCell>
        <mxCell id="WDk9t2JCO1CVOHtqvnAU-3" value="" style="shape=image;html=1;verticalAlign=top;verticalLabelPosition=bottom;labelBackgroundColor=#ffffff;imageAspect=0;aspect=fixed;image=https://cdn1.iconfinder.com/data/icons/bootstrap-vol-3/16/hexagon-128.png;labelBorderColor=#FFFFFF;fontSize=36;fillColor=#3333FF;rotation=90;" vertex="1" parent="1">
          <mxGeometry x="316" y="200" width="218" height="218" as="geometry" />
        </mxCell>
        <mxCell id="WDk9t2JCO1CVOHtqvnAU-4" value="" style="shape=image;html=1;verticalAlign=top;verticalLabelPosition=bottom;labelBackgroundColor=#ffffff;imageAspect=0;aspect=fixed;image=https://cdn1.iconfinder.com/data/icons/bootstrap-vol-3/16/hexagon-128.png;labelBorderColor=#FFFFFF;fontSize=36;fillColor=#3333FF;rotation=90;" vertex="1" parent="1">
          <mxGeometry x="320" y="450" width="218" height="218" as="geometry" />
        </mxCell>
        <mxCell id="WDk9t2JCO1CVOHtqvnAU-5" value="" style="shape=image;html=1;verticalAlign=top;verticalLabelPosition=bottom;labelBackgroundColor=#ffffff;imageAspect=0;aspect=fixed;image=https://cdn1.iconfinder.com/data/icons/bootstrap-vol-3/16/hexagon-128.png;labelBorderColor=#FFFFFF;fontSize=36;fillColor=#3333FF;rotation=90;" vertex="1" parent="1">
          <mxGeometry x="321" y="690" width="218" height="218" as="geometry" />
        </mxCell>
        <mxCell id="WDk9t2JCO1CVOHtqvnAU-6" value="" style="shape=image;html=1;verticalAlign=top;verticalLabelPosition=bottom;labelBackgroundColor=#ffffff;imageAspect=0;aspect=fixed;image=https://cdn1.iconfinder.com/data/icons/bootstrap-vol-3/16/hexagon-128.png;labelBorderColor=#FFFFFF;fontSize=36;fillColor=#3333FF;rotation=90;" vertex="1" parent="1">
          <mxGeometry x="321" y="900" width="218" height="218" as="geometry" />
        </mxCell>
        <mxCell id="WDk9t2JCO1CVOHtqvnAU-7" value="My Projects" style="text;html=1;strokeColor=none;fillColor=none;align=center;verticalAlign=middle;whiteSpace=wrap;rounded=0;labelBackgroundColor=#FFFFFF;labelBorderColor=#FFFFFF;fontSize=36;" vertex="1" parent="1">
          <mxGeometry x="240" y="-90" width="280" height="30" as="geometry" />
        </mxCell>
        <mxCell id="WDk9t2JCO1CVOHtqvnAU-8" value="" style="html=1;verticalLabelPosition=bottom;align=center;labelBackgroundColor=#ffffff;verticalAlign=top;strokeWidth=2;strokeColor=#0080F0;shadow=0;dashed=0;shape=mxgraph.ios7.icons.most_viewed;pointerEvents=1;labelBorderColor=#FFFFFF;fontSize=36;fillColor=#3333FF;" vertex="1" parent="1">
          <mxGeometry x="590" y="-86.4" width="50" height="36.4" as="geometry" />
        </mxCell>
        <mxCell id="WDk9t2JCO1CVOHtqvnAU-9" value="project1" style="text;html=1;strokeColor=none;fillColor=none;align=center;verticalAlign=middle;whiteSpace=wrap;rounded=0;labelBackgroundColor=#FFFFFF;labelBorderColor=#FFFFFF;fontSize=36;" vertex="1" parent="1">
          <mxGeometry x="400" y="76" width="50" height="30" as="geometry" />
        </mxCell>
        <mxCell id="WDk9t2JCO1CVOHtqvnAU-13" value="Back to top" style="text;html=1;strokeColor=none;fillColor=none;align=center;verticalAlign=middle;whiteSpace=wrap;rounded=0;labelBackgroundColor=#FFFFFF;labelBorderColor=#FFFFFF;fontSize=36;" vertex="1" parent="1">
          <mxGeometry x="370" y="990" width="120" height="30" as="geometry" />
        </mxCell>
        <mxCell id="WDk9t2JCO1CVOHtqvnAU-14" value="" style="verticalLabelPosition=bottom;html=1;verticalAlign=top;align=center;strokeColor=none;fillColor=#00BEF2;shape=mxgraph.azure.github_code;pointerEvents=1;labelBackgroundColor=#FFFFFF;labelBorderColor=#FFFFFF;fontSize=36;" vertex="1" parent="1">
          <mxGeometry x="360" y="1200" width="145" height="130" as="geometry" />
        </mxCell>
        <mxCell id="WDk9t2JCO1CVOHtqvnAU-15" value="" style="dashed=0;outlineConnect=0;html=1;align=center;labelPosition=center;verticalLabelPosition=bottom;verticalAlign=top;shape=mxgraph.webicons.twitter;fillColor=#49EAF7;gradientColor=#137BD0;labelBackgroundColor=#FFFFFF;labelBorderColor=#FFFFFF;fontSize=36;" vertex="1" parent="1">
          <mxGeometry x="230" y="1320" width="110" height="100" as="geometry" />
        </mxCell>
        <mxCell id="WDk9t2JCO1CVOHtqvnAU-16" value="" style="dashed=0;outlineConnect=0;html=1;align=center;labelPosition=center;verticalLabelPosition=bottom;verticalAlign=top;shape=mxgraph.webicons.linkedin;fillColor=#0095DB;gradientColor=#006391;labelBackgroundColor=#FFFFFF;labelBorderColor=#FFFFFF;fontSize=36;" vertex="1" parent="1">
          <mxGeometry x="530" y="1320" width="102.4" height="102.4" as="geometry" />
        </mxCell>
        <mxCell id="WDk9t2JCO1CVOHtqvnAU-17" value="project2" style="text;html=1;strokeColor=none;fillColor=none;align=center;verticalAlign=middle;whiteSpace=wrap;rounded=0;labelBackgroundColor=#FFFFFF;labelBorderColor=#FFFFFF;fontSize=36;" vertex="1" parent="1">
          <mxGeometry x="405" y="290" width="50" height="30" as="geometry" />
        </mxCell>
        <mxCell id="WDk9t2JCO1CVOHtqvnAU-21" value="" style="edgeStyle=orthogonalEdgeStyle;rounded=0;orthogonalLoop=1;jettySize=auto;html=1;fontSize=36;" edge="1" parent="1" source="WDk9t2JCO1CVOHtqvnAU-18">
          <mxGeometry relative="1" as="geometry">
            <mxPoint x="535" y="550" as="targetPoint" />
          </mxGeometry>
        </mxCell>
        <mxCell id="WDk9t2JCO1CVOHtqvnAU-18" value="project3" style="text;html=1;strokeColor=none;fillColor=none;align=center;verticalAlign=middle;whiteSpace=wrap;rounded=0;labelBackgroundColor=#FFFFFF;labelBorderColor=#FFFFFF;fontSize=36;" vertex="1" parent="1">
          <mxGeometry x="406" y="535" width="50" height="30" as="geometry" />
        </mxCell>
        <mxCell id="WDk9t2JCO1CVOHtqvnAU-19" value="project4" style="text;html=1;strokeColor=none;fillColor=none;align=center;verticalAlign=middle;whiteSpace=wrap;rounded=0;labelBackgroundColor=#FFFFFF;labelBorderColor=#FFFFFF;fontSize=36;" vertex="1" parent="1">
          <mxGeometry x="407.5" y="784" width="50" height="30" as="geometry" />
        </mxCell>
        <mxCell id="WDk9t2JCO1CVOHtqvnAU-23" value="" style="edgeStyle=orthogonalEdgeStyle;rounded=0;orthogonalLoop=1;jettySize=auto;html=1;fontSize=49;fontStyle=1" edge="1" parent="1" source="WDk9t2JCO1CVOHtqvnAU-22" target="WDk9t2JCO1CVOHtqvnAU-1">
          <mxGeometry relative="1" as="geometry">
            <mxPoint x="800" y="-200" as="sourcePoint" />
            <Array as="points">
              <mxPoint x="790" y="-335" />
              <mxPoint x="790" y="-70" />
            </Array>
          </mxGeometry>
        </mxCell>
        <mxCell id="WDk9t2JCO1CVOHtqvnAU-22" value="Über das Bürgermenü soll es möglich sein zur Home- sowie den anderen Pages zu navigieren" style="text;html=1;strokeColor=none;fillColor=none;align=center;verticalAlign=middle;whiteSpace=wrap;rounded=0;labelBackgroundColor=#FFFFFF;labelBorderColor=#FFFFFF;fontSize=36;" vertex="1" parent="1">
          <mxGeometry x="180" y="-480" width="530" height="290" as="geometry" />
        </mxCell>
      </root>
    </mxGraphModel>
  </diagram>
</mxfile>
